<mxfile host="65bd71144e">
    <diagram id="WmTgFoUp7qAfaRWp4kkh" name="Homepage">
<<<<<<< HEAD
        <mxGraphModel dx="1089" dy="1157" grid="1" gridSize="10" guides="1" tooltips="1" connect="1" arrows="1" fold="1" page="1" pageScale="1" pageWidth="1100" pageHeight="850" math="0" shadow="0">
=======
        <mxGraphModel dx="466" dy="216" grid="1" gridSize="10" guides="1" tooltips="1" connect="1" arrows="1" fold="1" page="1" pageScale="1" pageWidth="1100" pageHeight="850" math="0" shadow="0">
>>>>>>> 6710be9cc2c3d7a9923cee38cdf8c6669b96e2d7
            <root>
                <mxCell id="0"/>
                <mxCell id="1" parent="0"/>
                <mxCell id="Cb-cyOfJFcfhJ2zRgTBf-8" value="" style="shape=image;html=1;verticalLabelPosition=bottom;verticalAlign=top;imageAspect=1;aspect=fixed;image=img/clipart/Gear_128x128.png;fontSize=13;" parent="1" vertex="1">
                    <mxGeometry x="338" y="220" width="420" height="492.69" as="geometry"/>
                </mxCell>
                <mxCell id="2" value="Home&lt;span style=&quot;white-space: pre&quot;&gt;&#9;&lt;/span&gt;&lt;span style=&quot;white-space: pre&quot;&gt;&#9;&lt;/span&gt;Library&lt;span style=&quot;white-space: pre&quot;&gt;&#9;&lt;/span&gt;&lt;span style=&quot;white-space: pre&quot;&gt;&#9;&lt;/span&gt;Contact Us&lt;span style=&quot;white-space: pre&quot;&gt;&#9;&lt;span style=&quot;white-space: pre&quot;&gt;&#9;&lt;/span&gt;&lt;/span&gt;&lt;span style=&quot;white-space: pre&quot;&gt;D&lt;/span&gt;onate a Booke&amp;nbsp;&lt;span style=&quot;white-space: pre&quot;&gt;&#9;&lt;/span&gt;&lt;span style=&quot;white-space: pre&quot;&gt;&#9;&lt;/span&gt;&lt;span style=&quot;white-space: pre&quot;&gt;&#9;&lt;/span&gt;&lt;span style=&quot;white-space: pre&quot;&gt;&#9;&lt;/span&gt;&lt;span style=&quot;white-space: pre&quot;&gt;&#9;&lt;/span&gt;&lt;span style=&quot;white-space: pre&quot;&gt;&#9;&lt;/span&gt;&lt;span style=&quot;white-space: pre&quot;&gt;&#9;&lt;/span&gt;&lt;span style=&quot;white-space: pre&quot;&gt;&#9;&lt;/span&gt;&lt;span style=&quot;white-space: pre&quot;&gt;&#9;&lt;/span&gt;&lt;span style=&quot;white-space: pre&quot;&gt;&#9;&lt;/span&gt;&lt;span style=&quot;white-space: pre&quot;&gt;&#9;&lt;/span&gt;&lt;span style=&quot;white-space: pre&quot;&gt;&#9;&lt;/span&gt;&lt;span style=&quot;white-space: pre&quot;&gt;&#9;&lt;/span&gt;&lt;span style=&quot;white-space: pre&quot;&gt;&#9;&lt;/span&gt;Login (Username if Logged in) | Signup" style="rounded=0;whiteSpace=wrap;html=1;align=left;" parent="1" vertex="1">
                    <mxGeometry x="78" y="40" width="940" height="60" as="geometry"/>
                </mxCell>
                <mxCell id="Cb-cyOfJFcfhJ2zRgTBf-9" value="Search" style="rounded=0;whiteSpace=wrap;html=1;fontSize=13;align=left;" parent="1" vertex="1">
                    <mxGeometry x="78" y="120" width="252" height="40" as="geometry"/>
                </mxCell>
            </root>
        </mxGraphModel>
    </diagram>
<<<<<<< HEAD
    <diagram id="BZBxFSYjPAKQxk8nNFtD" name="Library - Search">
        <mxGraphModel dx="806" dy="871" grid="1" gridSize="10" guides="1" tooltips="1" connect="1" arrows="1" fold="1" page="1" pageScale="1" pageWidth="1100" pageHeight="850" math="0" shadow="0">
=======
    <diagram id="BZBxFSYjPAKQxk8nNFtD" name="Library">
        <mxGraphModel dx="466" dy="216" grid="1" gridSize="10" guides="1" tooltips="1" connect="1" arrows="1" fold="1" page="1" pageScale="1" pageWidth="1100" pageHeight="850" math="0" shadow="0">
>>>>>>> 6710be9cc2c3d7a9923cee38cdf8c6669b96e2d7
            <root>
                <mxCell id="FzjsS9wOtjrFok200E7d-0"/>
                <mxCell id="FzjsS9wOtjrFok200E7d-1" parent="FzjsS9wOtjrFok200E7d-0"/>
                <mxCell id="FzjsS9wOtjrFok200E7d-2" value="Library" style="text;html=1;strokeColor=none;fillColor=none;align=center;verticalAlign=middle;whiteSpace=wrap;rounded=0;fontSize=40;" parent="FzjsS9wOtjrFok200E7d-1" vertex="1">
                    <mxGeometry x="70" y="30" width="930" height="30" as="geometry"/>
                </mxCell>
                <mxCell id="FzjsS9wOtjrFok200E7d-4" value="Search Bar&lt;br&gt;&lt;br&gt;Advanced Search" style="rounded=0;whiteSpace=wrap;html=1;" parent="FzjsS9wOtjrFok200E7d-1" vertex="1">
                    <mxGeometry x="250" y="74" width="570" height="70" as="geometry"/>
                </mxCell>
                <mxCell id="LdtRJ22ps5Rk2ihJhryB-0" value="&lt;font style=&quot;font-size: 36px&quot;&gt;Results&lt;/font&gt;" style="whiteSpace=wrap;html=1;aspect=fixed;align=center;horizontal=1;labelPosition=center;verticalLabelPosition=top;verticalAlign=bottom;" parent="FzjsS9wOtjrFok200E7d-1" vertex="1">
                    <mxGeometry x="250" y="195" width="570" height="570" as="geometry"/>
                </mxCell>
                <mxCell id="4ty_6kCiVubnt9bN1tZC-1" value="" style="rounded=0;whiteSpace=wrap;html=1;fontSize=36;" parent="FzjsS9wOtjrFok200E7d-1" vertex="1">
                    <mxGeometry x="300" y="260" width="440" height="120" as="geometry"/>
                </mxCell>
                <mxCell id="LdtRJ22ps5Rk2ihJhryB-1" value="Book Link 1" style="text;strokeColor=none;fillColor=none;align=left;verticalAlign=middle;spacingLeft=4;spacingRight=4;overflow=hidden;points=[[0,0.5],[1,0.5]];portConstraint=eastwest;rotatable=0;fontSize=36;" parent="FzjsS9wOtjrFok200E7d-1" vertex="1">
                    <mxGeometry x="300" y="260" width="210" height="60" as="geometry"/>
                </mxCell>
                <mxCell id="-wOU6wTaVR_2ZbnvfJ7c-0" value="" style="rounded=0;whiteSpace=wrap;html=1;fontSize=36;" parent="FzjsS9wOtjrFok200E7d-1" vertex="1">
                    <mxGeometry x="300" y="420" width="440" height="120" as="geometry"/>
                </mxCell>
                <mxCell id="LdtRJ22ps5Rk2ihJhryB-2" value="Book Link 2" style="text;strokeColor=none;fillColor=none;align=left;verticalAlign=middle;spacingLeft=4;spacingRight=4;overflow=hidden;points=[[0,0.5],[1,0.5]];portConstraint=eastwest;rotatable=0;fontSize=36;" parent="FzjsS9wOtjrFok200E7d-1" vertex="1">
                    <mxGeometry x="300" y="420" width="210" height="60" as="geometry"/>
                </mxCell>
                <mxCell id="-wOU6wTaVR_2ZbnvfJ7c-1" value="" style="rounded=0;whiteSpace=wrap;html=1;fontSize=36;" parent="FzjsS9wOtjrFok200E7d-1" vertex="1">
                    <mxGeometry x="300" y="570" width="440" height="120" as="geometry"/>
                </mxCell>
                <mxCell id="LdtRJ22ps5Rk2ihJhryB-3" value="Book Link 3" style="text;strokeColor=none;fillColor=none;align=left;verticalAlign=middle;spacingLeft=4;spacingRight=4;overflow=hidden;points=[[0,0.5],[1,0.5]];portConstraint=eastwest;rotatable=0;fontSize=36;" parent="FzjsS9wOtjrFok200E7d-1" vertex="1">
                    <mxGeometry x="300" y="570" width="210" height="60" as="geometry"/>
                </mxCell>
                <mxCell id="-wOU6wTaVR_2ZbnvfJ7c-2" value="&lt;h1 style=&quot;font-size: 13px&quot;&gt;Get Route&lt;/h1&gt;&lt;div&gt;Get to display search results&lt;/div&gt;&lt;div&gt;&lt;br&gt;&lt;/div&gt;&lt;div&gt;Results are Linkable&lt;/div&gt;&lt;div&gt;&lt;span style=&quot;white-space: pre&quot;&gt;&#9;&lt;/span&gt;Renders to own book &lt;span style=&quot;white-space: pre&quot;&gt;&#9;&lt;/span&gt;page&lt;br&gt;&lt;/div&gt;" style="text;html=1;strokeColor=none;fillColor=none;spacing=5;spacingTop=-20;whiteSpace=wrap;overflow=hidden;rounded=0;fontSize=13;" parent="FzjsS9wOtjrFok200E7d-1" vertex="1">
                    <mxGeometry x="880" y="195" width="190" height="120" as="geometry"/>
                </mxCell>
            </root>
        </mxGraphModel>
    </diagram>
    <diagram id="tKnISiqLFTTlk71kXn4B" name="Book Information">
<<<<<<< HEAD
        <mxGraphModel dx="322" dy="437" grid="1" gridSize="10" guides="1" tooltips="1" connect="1" arrows="1" fold="1" page="1" pageScale="1" pageWidth="1100" pageHeight="850" math="0" shadow="0">
=======
        <mxGraphModel dx="466" dy="216" grid="1" gridSize="10" guides="1" tooltips="1" connect="1" arrows="1" fold="1" page="1" pageScale="1" pageWidth="1100" pageHeight="850" math="0" shadow="0">
>>>>>>> 6710be9cc2c3d7a9923cee38cdf8c6669b96e2d7
            <root>
                <mxCell id="0jnTt7foeNBAJdi-NBAz-0"/>
                <mxCell id="0jnTt7foeNBAJdi-NBAz-1" parent="0jnTt7foeNBAJdi-NBAz-0"/>
                <mxCell id="0jnTt7foeNBAJdi-NBAz-2" value="Book Information" style="text;strokeColor=none;fillColor=none;html=1;fontSize=24;fontStyle=1;verticalAlign=middle;align=center;" parent="0jnTt7foeNBAJdi-NBAz-1" vertex="1">
                    <mxGeometry x="500" y="50" width="100" height="40" as="geometry"/>
                </mxCell>
<<<<<<< HEAD
                <mxCell id="doPDYhhbyZ0pPeEzBOpt-0" value="&lt;span style=&quot;color: rgb(240 , 240 , 240) ; font-style: normal ; font-weight: 400 ; letter-spacing: normal ; text-align: left ; text-indent: 0px ; text-transform: none ; word-spacing: 0px ; font-family: &amp;#34;helvetica&amp;#34; ; font-size: 12px ; background-color: rgb(42 , 42 , 42) ; display: inline ; float: none&quot;&gt;&amp;nbsp;&amp;nbsp;&amp;nbsp;&amp;nbsp;&amp;nbsp;&amp;nbsp;&amp;nbsp;&amp;nbsp;Checked In (true/false)&lt;/span&gt;&lt;br style=&quot;color: rgb(240 , 240 , 240) ; font-style: normal ; font-weight: 400 ; letter-spacing: normal ; text-align: left ; text-indent: 0px ; text-transform: none ; word-spacing: 0px ; padding: 0px ; margin: 0px ; font-family: &amp;#34;helvetica&amp;#34; ; font-size: 12px ; background-color: rgb(42 , 42 , 42)&quot;&gt;&lt;span style=&quot;color: rgb(240 , 240 , 240) ; font-style: normal ; font-weight: 400 ; letter-spacing: normal ; text-align: left ; text-indent: 0px ; text-transform: none ; word-spacing: 0px ; font-family: &amp;#34;helvetica&amp;#34; ; font-size: 12px ; background-color: rgb(42 , 42 , 42) ; display: inline ; float: none&quot;&gt;&amp;nbsp;&amp;nbsp;&amp;nbsp;&amp;nbsp;&amp;nbsp;&amp;nbsp;&amp;nbsp;&amp;nbsp;Title&lt;/span&gt;&lt;br style=&quot;color: rgb(240 , 240 , 240) ; font-style: normal ; font-weight: 400 ; letter-spacing: normal ; text-align: left ; text-indent: 0px ; text-transform: none ; word-spacing: 0px ; padding: 0px ; margin: 0px ; font-family: &amp;#34;helvetica&amp;#34; ; font-size: 12px ; background-color: rgb(42 , 42 , 42)&quot;&gt;&lt;span style=&quot;color: rgb(240 , 240 , 240) ; font-style: normal ; font-weight: 400 ; letter-spacing: normal ; text-align: left ; text-indent: 0px ; text-transform: none ; word-spacing: 0px ; font-family: &amp;#34;helvetica&amp;#34; ; font-size: 12px ; background-color: rgb(42 , 42 , 42) ; display: inline ; float: none&quot;&gt;&amp;nbsp;&amp;nbsp;&amp;nbsp;&amp;nbsp;&amp;nbsp;&amp;nbsp;&amp;nbsp;&amp;nbsp;Author&lt;/span&gt;&lt;br style=&quot;color: rgb(240 , 240 , 240) ; font-style: normal ; font-weight: 400 ; letter-spacing: normal ; text-align: left ; text-indent: 0px ; text-transform: none ; word-spacing: 0px ; padding: 0px ; margin: 0px ; font-family: &amp;#34;helvetica&amp;#34; ; font-size: 12px ; background-color: rgb(42 , 42 , 42)&quot;&gt;&lt;span style=&quot;color: rgb(240 , 240 , 240) ; font-style: normal ; font-weight: 400 ; letter-spacing: normal ; text-align: left ; text-indent: 0px ; text-transform: none ; word-spacing: 0px ; font-family: &amp;#34;helvetica&amp;#34; ; font-size: 12px ; background-color: rgb(42 , 42 , 42) ; display: inline ; float: none&quot;&gt;&amp;nbsp;&amp;nbsp;&amp;nbsp;&amp;nbsp;&amp;nbsp;&amp;nbsp;&amp;nbsp;&amp;nbsp;Genre&lt;/span&gt;&lt;br style=&quot;color: rgb(240 , 240 , 240) ; font-style: normal ; font-weight: 400 ; letter-spacing: normal ; text-align: left ; text-indent: 0px ; text-transform: none ; word-spacing: 0px ; padding: 0px ; margin: 0px ; font-family: &amp;#34;helvetica&amp;#34; ; font-size: 12px ; background-color: rgb(42 , 42 , 42)&quot;&gt;&lt;span style=&quot;color: rgb(240 , 240 , 240) ; font-style: normal ; font-weight: 400 ; letter-spacing: normal ; text-align: left ; text-indent: 0px ; text-transform: none ; word-spacing: 0px ; font-family: &amp;#34;helvetica&amp;#34; ; font-size: 12px ; background-color: rgb(42 , 42 , 42) ; display: inline ; float: none&quot;&gt;&amp;nbsp;&amp;nbsp;&amp;nbsp;&amp;nbsp;&amp;nbsp;&amp;nbsp;&amp;nbsp;&amp;nbsp;Audilbe&lt;br&gt;&lt;span&gt;&#9;&lt;/span&gt;&lt;span style=&quot;white-space: pre&quot;&gt;&#9;&lt;/span&gt;New Arrival?&lt;br&gt;&lt;span&gt;&#9;&lt;/span&gt;&lt;span style=&quot;white-space: pre&quot;&gt;&#9;&lt;/span&gt;&lt;/span&gt;" style="text;whiteSpace=wrap;html=1;fontSize=13;labelBorderColor=default;" parent="0jnTt7foeNBAJdi-NBAz-1" vertex="1">
=======
                <mxCell id="doPDYhhbyZ0pPeEzBOpt-0" value="&lt;span style=&quot;color: rgb(240 , 240 , 240) ; font-style: normal ; font-weight: 400 ; letter-spacing: normal ; text-align: left ; text-indent: 0px ; text-transform: none ; word-spacing: 0px ; font-family: &amp;#34;helvetica&amp;#34; ; font-size: 12px ; background-color: rgb(42 , 42 , 42) ; display: inline ; float: none&quot;&gt;&amp;nbsp;&amp;nbsp;&amp;nbsp;&amp;nbsp;&amp;nbsp;&amp;nbsp;&amp;nbsp;&amp;nbsp;Checked In (true/false)&lt;/span&gt;&lt;br style=&quot;color: rgb(240 , 240 , 240) ; font-style: normal ; font-weight: 400 ; letter-spacing: normal ; text-align: left ; text-indent: 0px ; text-transform: none ; word-spacing: 0px ; padding: 0px ; margin: 0px ; font-family: &amp;#34;helvetica&amp;#34; ; font-size: 12px ; background-color: rgb(42 , 42 , 42)&quot;&gt;&lt;span style=&quot;color: rgb(240 , 240 , 240) ; font-style: normal ; font-weight: 400 ; letter-spacing: normal ; text-align: left ; text-indent: 0px ; text-transform: none ; word-spacing: 0px ; font-family: &amp;#34;helvetica&amp;#34; ; font-size: 12px ; background-color: rgb(42 , 42 , 42) ; display: inline ; float: none&quot;&gt;&amp;nbsp;&amp;nbsp;&amp;nbsp;&amp;nbsp;&amp;nbsp;&amp;nbsp;&amp;nbsp;&amp;nbsp;Title&lt;/span&gt;&lt;br style=&quot;color: rgb(240 , 240 , 240) ; font-style: normal ; font-weight: 400 ; letter-spacing: normal ; text-align: left ; text-indent: 0px ; text-transform: none ; word-spacing: 0px ; padding: 0px ; margin: 0px ; font-family: &amp;#34;helvetica&amp;#34; ; font-size: 12px ; background-color: rgb(42 , 42 , 42)&quot;&gt;&lt;span style=&quot;color: rgb(240 , 240 , 240) ; font-style: normal ; font-weight: 400 ; letter-spacing: normal ; text-align: left ; text-indent: 0px ; text-transform: none ; word-spacing: 0px ; font-family: &amp;#34;helvetica&amp;#34; ; font-size: 12px ; background-color: rgb(42 , 42 , 42) ; display: inline ; float: none&quot;&gt;&amp;nbsp;&amp;nbsp;&amp;nbsp;&amp;nbsp;&amp;nbsp;&amp;nbsp;&amp;nbsp;&amp;nbsp;Author&lt;/span&gt;&lt;br style=&quot;color: rgb(240 , 240 , 240) ; font-style: normal ; font-weight: 400 ; letter-spacing: normal ; text-align: left ; text-indent: 0px ; text-transform: none ; word-spacing: 0px ; padding: 0px ; margin: 0px ; font-family: &amp;#34;helvetica&amp;#34; ; font-size: 12px ; background-color: rgb(42 , 42 , 42)&quot;&gt;&lt;span style=&quot;color: rgb(240 , 240 , 240) ; font-style: normal ; font-weight: 400 ; letter-spacing: normal ; text-align: left ; text-indent: 0px ; text-transform: none ; word-spacing: 0px ; font-family: &amp;#34;helvetica&amp;#34; ; font-size: 12px ; background-color: rgb(42 , 42 , 42) ; display: inline ; float: none&quot;&gt;&amp;nbsp;&amp;nbsp;&amp;nbsp;&amp;nbsp;&amp;nbsp;&amp;nbsp;&amp;nbsp;&amp;nbsp;Genre&lt;/span&gt;&lt;br style=&quot;color: rgb(240 , 240 , 240) ; font-style: normal ; font-weight: 400 ; letter-spacing: normal ; text-align: left ; text-indent: 0px ; text-transform: none ; word-spacing: 0px ; padding: 0px ; margin: 0px ; font-family: &amp;#34;helvetica&amp;#34; ; font-size: 12px ; background-color: rgb(42 , 42 , 42)&quot;&gt;&lt;span style=&quot;color: rgb(240 , 240 , 240) ; font-style: normal ; font-weight: 400 ; letter-spacing: normal ; text-align: left ; text-indent: 0px ; text-transform: none ; word-spacing: 0px ; font-family: &amp;#34;helvetica&amp;#34; ; font-size: 12px ; background-color: rgb(42 , 42 , 42) ; display: inline ; float: none&quot;&gt;&amp;nbsp;&amp;nbsp;&amp;nbsp;&amp;nbsp;&amp;nbsp;&amp;nbsp;&amp;nbsp;&amp;nbsp;Audilbe&lt;br&gt;&lt;span&gt;&#9;&lt;/span&gt;&lt;span style=&quot;white-space: pre&quot;&gt;&#9;&lt;/span&gt;New Arrival?&lt;br&gt;&lt;span&gt;&#9;&lt;/span&gt;&lt;span style=&quot;white-space: pre&quot;&gt;&#9;&lt;/span&gt;Good Reads Rating(3rd Party)&lt;/span&gt;" style="text;whiteSpace=wrap;html=1;fontSize=13;labelBorderColor=default;" parent="0jnTt7foeNBAJdi-NBAz-1" vertex="1">
>>>>>>> 6710be9cc2c3d7a9923cee38cdf8c6669b96e2d7
                    <mxGeometry x="450" y="120" width="350" height="130" as="geometry"/>
                </mxCell>
                <mxCell id="gfEfy3_q-xKirZb5Mpi7-0" value="Reserve Book" style="text;html=1;strokeColor=none;fillColor=none;align=center;verticalAlign=middle;whiteSpace=wrap;rounded=0;fontSize=13;labelBorderColor=default;" parent="0jnTt7foeNBAJdi-NBAz-1" vertex="1">
                    <mxGeometry x="450" y="260" width="60" height="30" as="geometry"/>
                </mxCell>
                <mxCell id="b6j1OsDqUVRunohXqBW2-0" value="Back to Home" style="text;html=1;strokeColor=none;fillColor=none;align=center;verticalAlign=middle;whiteSpace=wrap;rounded=0;fontSize=13;labelBorderColor=default;" parent="0jnTt7foeNBAJdi-NBAz-1" vertex="1">
                    <mxGeometry x="490" y="310" width="60" height="30" as="geometry"/>
                </mxCell>
                <mxCell id="b6j1OsDqUVRunohXqBW2-1" value="Out of stock" style="text;html=1;strokeColor=none;fillColor=none;align=center;verticalAlign=middle;whiteSpace=wrap;rounded=0;fontSize=13;labelBorderColor=default;" parent="0jnTt7foeNBAJdi-NBAz-1" vertex="1">
                    <mxGeometry x="490" y="360" width="60" height="30" as="geometry"/>
                </mxCell>
                <mxCell id="b6j1OsDqUVRunohXqBW2-2" value="(If the user isn't logged in.)" style="text;html=1;align=left;verticalAlign=middle;resizable=0;points=[];autosize=1;strokeColor=none;fillColor=none;fontSize=13;" parent="0jnTt7foeNBAJdi-NBAz-1" vertex="1">
                    <mxGeometry x="560" y="315" width="170" height="20" as="geometry"/>
                </mxCell>
                <mxCell id="whIsqVOUuPD_EJ6hI2y8-0" value="&lt;span style=&quot;color: rgb(240 , 240 , 240) ; font-family: &amp;#34;helvetica&amp;#34; ; font-size: 13px ; font-style: normal ; font-weight: 400 ; letter-spacing: normal ; text-align: left ; text-indent: 0px ; text-transform: none ; word-spacing: 0px ; background-color: rgb(42 , 42 , 42) ; display: inline ; float: none&quot;&gt;(If the book is not available.)&lt;/span&gt;" style="text;whiteSpace=wrap;html=1;fontSize=13;" parent="0jnTt7foeNBAJdi-NBAz-1" vertex="1">
                    <mxGeometry x="560" y="360" width="180" height="30" as="geometry"/>
                </mxCell>
                <mxCell id="whIsqVOUuPD_EJ6hI2y8-2" value="" style="edgeStyle=segmentEdgeStyle;endArrow=classic;html=1;fontSize=13;entryX=0;entryY=0.5;entryDx=0;entryDy=0;" parent="0jnTt7foeNBAJdi-NBAz-1" target="b6j1OsDqUVRunohXqBW2-0" edge="1">
                    <mxGeometry width="50" height="50" relative="1" as="geometry">
                        <mxPoint x="470" y="300" as="sourcePoint"/>
                        <mxPoint x="620" y="290" as="targetPoint"/>
                        <Array as="points">
                            <mxPoint x="470" y="290"/>
                            <mxPoint x="470" y="325"/>
                        </Array>
                    </mxGeometry>
                </mxCell>
                <mxCell id="whIsqVOUuPD_EJ6hI2y8-3" value="" style="edgeStyle=segmentEdgeStyle;endArrow=classic;html=1;fontSize=13;entryX=0;entryY=0.5;entryDx=0;entryDy=0;" parent="0jnTt7foeNBAJdi-NBAz-1" target="b6j1OsDqUVRunohXqBW2-1" edge="1">
                    <mxGeometry width="50" height="50" relative="1" as="geometry">
                        <mxPoint x="470" y="292" as="sourcePoint"/>
                        <mxPoint x="500" y="335" as="targetPoint"/>
                        <Array as="points">
                            <mxPoint x="470" y="375"/>
                        </Array>
                    </mxGeometry>
                </mxCell>
            </root>
        </mxGraphModel>
    </diagram>
    <diagram id="WFzQPZniTnoVCTHp5i27" name="Models">
<<<<<<< HEAD
        <mxGraphModel dx="435" dy="463" grid="1" gridSize="10" guides="1" tooltips="1" connect="1" arrows="1" fold="1" page="1" pageScale="1" pageWidth="1100" pageHeight="850" math="0" shadow="0">
=======
        <mxGraphModel dx="466" dy="216" grid="1" gridSize="10" guides="1" tooltips="1" connect="1" arrows="1" fold="1" page="1" pageScale="1" pageWidth="1100" pageHeight="850" math="0" shadow="0">
>>>>>>> 6710be9cc2c3d7a9923cee38cdf8c6669b96e2d7
            <root>
                <mxCell id="gJIMmy8jtHoKGoFDTAei-0"/>
                <mxCell id="gJIMmy8jtHoKGoFDTAei-1" parent="gJIMmy8jtHoKGoFDTAei-0"/>
                <mxCell id="gJIMmy8jtHoKGoFDTAei-2" value="Users" style="swimlane;fontStyle=0;childLayout=stackLayout;horizontal=1;startSize=30;horizontalStack=0;resizeParent=1;resizeParentMax=0;resizeLast=0;collapsible=1;marginBottom=0;fontSize=13;" parent="gJIMmy8jtHoKGoFDTAei-1" vertex="1">
<<<<<<< HEAD
                    <mxGeometry x="140" y="130" width="140" height="130" as="geometry"/>
                </mxCell>
                <mxCell id="gJIMmy8jtHoKGoFDTAei-3" value="Name" style="text;strokeColor=none;fillColor=none;align=left;verticalAlign=middle;spacingLeft=4;spacingRight=4;overflow=hidden;points=[[0,0.5],[1,0.5]];portConstraint=eastwest;rotatable=0;fontSize=13;" parent="gJIMmy8jtHoKGoFDTAei-2" vertex="1">
                    <mxGeometry y="30" width="140" height="30" as="geometry"/>
                </mxCell>
                <mxCell id="gJIMmy8jtHoKGoFDTAei-4" value="Password" style="text;strokeColor=none;fillColor=none;align=left;verticalAlign=middle;spacingLeft=4;spacingRight=4;overflow=hidden;points=[[0,0.5],[1,0.5]];portConstraint=eastwest;rotatable=0;fontSize=13;" parent="gJIMmy8jtHoKGoFDTAei-2" vertex="1">
                    <mxGeometry y="60" width="140" height="30" as="geometry"/>
                </mxCell>
                <mxCell id="gJIMmy8jtHoKGoFDTAei-5" value="ID" style="text;strokeColor=none;fillColor=none;align=left;verticalAlign=middle;spacingLeft=4;spacingRight=4;overflow=hidden;points=[[0,0.5],[1,0.5]];portConstraint=eastwest;rotatable=0;fontSize=13;" parent="gJIMmy8jtHoKGoFDTAei-2" vertex="1">
                    <mxGeometry y="90" width="140" height="40" as="geometry"/>
=======
                    <mxGeometry x="140" y="130" width="142.33" height="120" as="geometry"/>
                </mxCell>
                <mxCell id="gJIMmy8jtHoKGoFDTAei-3" value="Name" style="text;strokeColor=none;fillColor=none;align=left;verticalAlign=middle;spacingLeft=4;spacingRight=4;overflow=hidden;points=[[0,0.5],[1,0.5]];portConstraint=eastwest;rotatable=0;fontSize=13;" parent="gJIMmy8jtHoKGoFDTAei-2" vertex="1">
                    <mxGeometry y="30" width="142.33" height="30" as="geometry"/>
                </mxCell>
                <mxCell id="gJIMmy8jtHoKGoFDTAei-4" value="Password" style="text;strokeColor=none;fillColor=none;align=left;verticalAlign=middle;spacingLeft=4;spacingRight=4;overflow=hidden;points=[[0,0.5],[1,0.5]];portConstraint=eastwest;rotatable=0;fontSize=13;" parent="gJIMmy8jtHoKGoFDTAei-2" vertex="1">
                    <mxGeometry y="60" width="142.33" height="30" as="geometry"/>
                </mxCell>
                <mxCell id="gJIMmy8jtHoKGoFDTAei-5" value="ID" style="text;strokeColor=none;fillColor=none;align=left;verticalAlign=middle;spacingLeft=4;spacingRight=4;overflow=hidden;points=[[0,0.5],[1,0.5]];portConstraint=eastwest;rotatable=0;fontSize=13;" parent="gJIMmy8jtHoKGoFDTAei-2" vertex="1">
                    <mxGeometry y="90" width="142.33" height="30" as="geometry"/>
>>>>>>> 6710be9cc2c3d7a9923cee38cdf8c6669b96e2d7
                </mxCell>
                <mxCell id="gJIMmy8jtHoKGoFDTAei-6" value="Books" style="swimlane;fontStyle=0;childLayout=stackLayout;horizontal=1;startSize=30;horizontalStack=0;resizeParent=1;resizeParentMax=0;resizeLast=0;collapsible=1;marginBottom=0;fontSize=13;" parent="gJIMmy8jtHoKGoFDTAei-1" vertex="1">
                    <mxGeometry x="360" y="130" width="200" height="360" as="geometry"/>
                </mxCell>
<<<<<<< HEAD
                <mxCell id="lQjS7vXRfjicb-7zEnJI-0" value="&lt;span style=&quot;color: rgb(240 , 240 , 240) ; font-family: &amp;#34;helvetica&amp;#34; ; font-size: 12px ; font-style: normal ; font-weight: 400 ; letter-spacing: normal ; text-align: left ; text-indent: 0px ; text-transform: none ; word-spacing: 0px ; background-color: rgb(42 , 42 , 42) ; display: inline ; float: none&quot;&gt;&amp;nbsp;&amp;nbsp;&amp;nbsp;&amp;nbsp;&amp;nbsp;&amp;nbsp;&amp;nbsp;&amp;nbsp;In Stock (true/false)&lt;/span&gt;&lt;br style=&quot;padding: 0px ; margin: 0px ; color: rgb(240 , 240 , 240) ; font-family: &amp;#34;helvetica&amp;#34; ; font-size: 12px ; font-style: normal ; font-weight: 400 ; letter-spacing: normal ; text-align: left ; text-indent: 0px ; text-transform: none ; word-spacing: 0px ; background-color: rgb(42 , 42 , 42)&quot;&gt;&lt;span style=&quot;color: rgb(240 , 240 , 240) ; font-family: &amp;#34;helvetica&amp;#34; ; font-size: 12px ; font-style: normal ; font-weight: 400 ; letter-spacing: normal ; text-align: left ; text-indent: 0px ; text-transform: none ; word-spacing: 0px ; background-color: rgb(42 , 42 , 42) ; display: inline ; float: none&quot;&gt;&amp;nbsp;&amp;nbsp;&amp;nbsp;&amp;nbsp;&amp;nbsp;&amp;nbsp;&amp;nbsp;&amp;nbsp;Title&lt;/span&gt;&lt;br style=&quot;padding: 0px ; margin: 0px ; color: rgb(240 , 240 , 240) ; font-family: &amp;#34;helvetica&amp;#34; ; font-size: 12px ; font-style: normal ; font-weight: 400 ; letter-spacing: normal ; text-align: left ; text-indent: 0px ; text-transform: none ; word-spacing: 0px ; background-color: rgb(42 , 42 , 42)&quot;&gt;&lt;span style=&quot;color: rgb(240 , 240 , 240) ; font-family: &amp;#34;helvetica&amp;#34; ; font-size: 12px ; font-style: normal ; font-weight: 400 ; letter-spacing: normal ; text-align: left ; text-indent: 0px ; text-transform: none ; word-spacing: 0px ; background-color: rgb(42 , 42 , 42) ; display: inline ; float: none&quot;&gt;&amp;nbsp;&amp;nbsp;&amp;nbsp;&amp;nbsp;&amp;nbsp;&amp;nbsp;&amp;nbsp;&amp;nbsp;Author&lt;/span&gt;&lt;br style=&quot;padding: 0px ; margin: 0px ; color: rgb(240 , 240 , 240) ; font-family: &amp;#34;helvetica&amp;#34; ; font-size: 12px ; font-style: normal ; font-weight: 400 ; letter-spacing: normal ; text-align: left ; text-indent: 0px ; text-transform: none ; word-spacing: 0px ; background-color: rgb(42 , 42 , 42)&quot;&gt;&lt;span style=&quot;color: rgb(240 , 240 , 240) ; font-family: &amp;#34;helvetica&amp;#34; ; font-size: 12px ; font-style: normal ; font-weight: 400 ; letter-spacing: normal ; text-align: left ; text-indent: 0px ; text-transform: none ; word-spacing: 0px ; background-color: rgb(42 , 42 , 42) ; display: inline ; float: none&quot;&gt;&amp;nbsp;&amp;nbsp;&amp;nbsp;&amp;nbsp;&amp;nbsp;&amp;nbsp;&amp;nbsp;&amp;nbsp;Genre&lt;/span&gt;&lt;span style=&quot;color: rgb(240 , 240 , 240) ; font-family: &amp;#34;helvetica&amp;#34; ; font-size: 12px ; font-style: normal ; font-weight: 400 ; letter-spacing: normal ; text-align: left ; text-indent: 0px ; text-transform: none ; word-spacing: 0px ; background-color: rgb(42 , 42 , 42) ; display: inline ; float: none&quot;&gt;&lt;br&gt;&lt;span style=&quot;white-space: pre&quot;&gt;&#9;&lt;/span&gt;New Arrival?&lt;br&gt;&lt;span style=&quot;white-space: pre&quot;&gt;&#9;&lt;/span&gt;&lt;strike&gt;Good Reads (3rd Party&lt;/strike&gt;)&amp;nbsp;&lt;br&gt;&lt;span style=&quot;white-space: pre&quot;&gt;&#9;&lt;/span&gt;Image URL&lt;br&gt;&lt;/span&gt;" style="text;whiteSpace=wrap;html=1;fontSize=36;" parent="gJIMmy8jtHoKGoFDTAei-6" vertex="1">
                    <mxGeometry y="30" width="200" height="330" as="geometry"/>
                </mxCell>
                <mxCell id="gJIMmy8jtHoKGoFDTAei-14" value="List of Checkout Books" style="text;strokeColor=none;fillColor=none;align=left;verticalAlign=middle;spacingLeft=4;spacingRight=4;overflow=hidden;points=[[0,0.5],[1,0.5]];portConstraint=eastwest;rotatable=0;fontSize=13;" parent="gJIMmy8jtHoKGoFDTAei-1" vertex="1">
=======
                <mxCell id="lQjS7vXRfjicb-7zEnJI-0" value="&lt;span style=&quot;color: rgb(240 , 240 , 240) ; font-family: &amp;#34;helvetica&amp;#34; ; font-size: 12px ; font-style: normal ; font-weight: 400 ; letter-spacing: normal ; text-align: left ; text-indent: 0px ; text-transform: none ; word-spacing: 0px ; background-color: rgb(42 , 42 , 42) ; display: inline ; float: none&quot;&gt;&amp;nbsp;&amp;nbsp;&amp;nbsp;&amp;nbsp;&amp;nbsp;&amp;nbsp;&amp;nbsp;&amp;nbsp;In Stock (true/false)&lt;/span&gt;&lt;br style=&quot;padding: 0px ; margin: 0px ; color: rgb(240 , 240 , 240) ; font-family: &amp;#34;helvetica&amp;#34; ; font-size: 12px ; font-style: normal ; font-weight: 400 ; letter-spacing: normal ; text-align: left ; text-indent: 0px ; text-transform: none ; word-spacing: 0px ; background-color: rgb(42 , 42 , 42)&quot;&gt;&lt;span style=&quot;color: rgb(240 , 240 , 240) ; font-family: &amp;#34;helvetica&amp;#34; ; font-size: 12px ; font-style: normal ; font-weight: 400 ; letter-spacing: normal ; text-align: left ; text-indent: 0px ; text-transform: none ; word-spacing: 0px ; background-color: rgb(42 , 42 , 42) ; display: inline ; float: none&quot;&gt;&amp;nbsp;&amp;nbsp;&amp;nbsp;&amp;nbsp;&amp;nbsp;&amp;nbsp;&amp;nbsp;&amp;nbsp;Title&lt;/span&gt;&lt;br style=&quot;padding: 0px ; margin: 0px ; color: rgb(240 , 240 , 240) ; font-family: &amp;#34;helvetica&amp;#34; ; font-size: 12px ; font-style: normal ; font-weight: 400 ; letter-spacing: normal ; text-align: left ; text-indent: 0px ; text-transform: none ; word-spacing: 0px ; background-color: rgb(42 , 42 , 42)&quot;&gt;&lt;span style=&quot;color: rgb(240 , 240 , 240) ; font-family: &amp;#34;helvetica&amp;#34; ; font-size: 12px ; font-style: normal ; font-weight: 400 ; letter-spacing: normal ; text-align: left ; text-indent: 0px ; text-transform: none ; word-spacing: 0px ; background-color: rgb(42 , 42 , 42) ; display: inline ; float: none&quot;&gt;&amp;nbsp;&amp;nbsp;&amp;nbsp;&amp;nbsp;&amp;nbsp;&amp;nbsp;&amp;nbsp;&amp;nbsp;Author&lt;/span&gt;&lt;br style=&quot;padding: 0px ; margin: 0px ; color: rgb(240 , 240 , 240) ; font-family: &amp;#34;helvetica&amp;#34; ; font-size: 12px ; font-style: normal ; font-weight: 400 ; letter-spacing: normal ; text-align: left ; text-indent: 0px ; text-transform: none ; word-spacing: 0px ; background-color: rgb(42 , 42 , 42)&quot;&gt;&lt;span style=&quot;color: rgb(240 , 240 , 240) ; font-family: &amp;#34;helvetica&amp;#34; ; font-size: 12px ; font-style: normal ; font-weight: 400 ; letter-spacing: normal ; text-align: left ; text-indent: 0px ; text-transform: none ; word-spacing: 0px ; background-color: rgb(42 , 42 , 42) ; display: inline ; float: none&quot;&gt;&amp;nbsp;&amp;nbsp;&amp;nbsp;&amp;nbsp;&amp;nbsp;&amp;nbsp;&amp;nbsp;&amp;nbsp;Genre&lt;/span&gt;&lt;br style=&quot;padding: 0px ; margin: 0px ; color: rgb(240 , 240 , 240) ; font-family: &amp;#34;helvetica&amp;#34; ; font-size: 12px ; font-style: normal ; font-weight: 400 ; letter-spacing: normal ; text-align: left ; text-indent: 0px ; text-transform: none ; word-spacing: 0px ; background-color: rgb(42 , 42 , 42)&quot;&gt;&lt;span style=&quot;color: rgb(240 , 240 , 240) ; font-family: &amp;#34;helvetica&amp;#34; ; font-size: 12px ; font-style: normal ; font-weight: 400 ; letter-spacing: normal ; text-align: left ; text-indent: 0px ; text-transform: none ; word-spacing: 0px ; background-color: rgb(42 , 42 , 42) ; display: inline ; float: none&quot;&gt;&amp;nbsp;&amp;nbsp;&amp;nbsp;&amp;nbsp;&amp;nbsp;&amp;nbsp;&amp;nbsp;&amp;nbsp;Audilbe&lt;br&gt;&lt;span style=&quot;white-space: pre&quot;&gt;&#9;&lt;/span&gt;New Arrival?&lt;br&gt;&lt;span style=&quot;white-space: pre&quot;&gt;&#9;&lt;/span&gt;Good Reads (3rd Party)&lt;br&gt;&lt;/span&gt;" style="text;whiteSpace=wrap;html=1;fontSize=36;" parent="gJIMmy8jtHoKGoFDTAei-6" vertex="1">
                    <mxGeometry y="30" width="200" height="330" as="geometry"/>
                </mxCell>
                <mxCell id="gJIMmy8jtHoKGoFDTAei-14" value="Checkout Books" style="text;strokeColor=none;fillColor=none;align=left;verticalAlign=middle;spacingLeft=4;spacingRight=4;overflow=hidden;points=[[0,0.5],[1,0.5]];portConstraint=eastwest;rotatable=0;fontSize=13;" parent="gJIMmy8jtHoKGoFDTAei-1" vertex="1">
>>>>>>> 6710be9cc2c3d7a9923cee38cdf8c6669b96e2d7
                    <mxGeometry x="140" y="250" width="142.33" height="70" as="geometry"/>
                </mxCell>
                <mxCell id="lQjS7vXRfjicb-7zEnJI-1" value="Users can have many books" style="text;html=1;strokeColor=none;fillColor=none;align=center;verticalAlign=middle;whiteSpace=wrap;rounded=0;fontSize=13;" parent="gJIMmy8jtHoKGoFDTAei-1" vertex="1">
                    <mxGeometry x="140" y="340" width="120" height="30" as="geometry"/>
                </mxCell>
                <mxCell id="lQjS7vXRfjicb-7zEnJI-2" value="A book can only have one user" style="text;html=1;align=center;verticalAlign=middle;resizable=0;points=[];autosize=1;strokeColor=none;fillColor=none;fontSize=13;" parent="gJIMmy8jtHoKGoFDTAei-1" vertex="1">
                    <mxGeometry x="360" y="500" width="190" height="20" as="geometry"/>
                </mxCell>
                <mxCell id="yBpSUA9jfxCcYGik6rWB-0" value="Checkout Limit (TBD)" style="text;strokeColor=none;fillColor=none;align=left;verticalAlign=middle;spacingLeft=4;spacingRight=4;overflow=hidden;points=[[0,0.5],[1,0.5]];portConstraint=eastwest;rotatable=0;fontSize=13;" parent="gJIMmy8jtHoKGoFDTAei-1" vertex="1">
                    <mxGeometry x="140" y="380" width="142.33" height="70" as="geometry"/>
                </mxCell>
            </root>
        </mxGraphModel>
    </diagram>
    <diagram id="wwfARPaylD-gr7Zwioe8" name="Donation Page">
<<<<<<< HEAD
        <mxGraphModel dx="564" dy="764" grid="1" gridSize="10" guides="1" tooltips="1" connect="1" arrows="1" fold="1" page="1" pageScale="1" pageWidth="1100" pageHeight="850" math="0" shadow="0">
            <root>
                <mxCell id="yBMcqC7M9m57o5L9N9ml-0"/>
                <mxCell id="yBMcqC7M9m57o5L9N9ml-1" parent="yBMcqC7M9m57o5L9N9ml-0"/>
                <mxCell id="7fuMSyOZE2lZqy47H0VQ-0" value="Books" style="swimlane;fontStyle=0;childLayout=stackLayout;horizontal=1;startSize=30;horizontalStack=0;resizeParent=1;resizeParentMax=0;resizeLast=0;collapsible=1;marginBottom=0;fontSize=13;" vertex="1" parent="yBMcqC7M9m57o5L9N9ml-1">
                    <mxGeometry x="450" y="130" width="200" height="360" as="geometry"/>
                </mxCell>
                <mxCell id="7fuMSyOZE2lZqy47H0VQ-1" value="&lt;span style=&quot;color: rgb(240 , 240 , 240) ; font-family: &amp;#34;helvetica&amp;#34; ; font-size: 12px ; font-style: normal ; font-weight: 400 ; letter-spacing: normal ; text-align: left ; text-indent: 0px ; text-transform: none ; word-spacing: 0px ; background-color: rgb(42 , 42 , 42) ; display: inline ; float: none&quot;&gt;&amp;nbsp; &amp;nbsp; &amp;nbsp; &amp;nbsp; Title&lt;/span&gt;&lt;br style=&quot;padding: 0px ; margin: 0px ; color: rgb(240 , 240 , 240) ; font-family: &amp;#34;helvetica&amp;#34; ; font-size: 12px ; font-style: normal ; font-weight: 400 ; letter-spacing: normal ; text-align: left ; text-indent: 0px ; text-transform: none ; word-spacing: 0px ; background-color: rgb(42 , 42 , 42)&quot;&gt;&lt;span style=&quot;color: rgb(240 , 240 , 240) ; font-family: &amp;#34;helvetica&amp;#34; ; font-size: 12px ; font-style: normal ; font-weight: 400 ; letter-spacing: normal ; text-align: left ; text-indent: 0px ; text-transform: none ; word-spacing: 0px ; background-color: rgb(42 , 42 , 42) ; display: inline ; float: none&quot;&gt;&amp;nbsp;&amp;nbsp;&amp;nbsp;&amp;nbsp;&amp;nbsp;&amp;nbsp;&amp;nbsp;&amp;nbsp;Author&lt;/span&gt;&lt;br style=&quot;padding: 0px ; margin: 0px ; color: rgb(240 , 240 , 240) ; font-family: &amp;#34;helvetica&amp;#34; ; font-size: 12px ; font-style: normal ; font-weight: 400 ; letter-spacing: normal ; text-align: left ; text-indent: 0px ; text-transform: none ; word-spacing: 0px ; background-color: rgb(42 , 42 , 42)&quot;&gt;&lt;span style=&quot;color: rgb(240 , 240 , 240) ; font-family: &amp;#34;helvetica&amp;#34; ; font-size: 12px ; font-style: normal ; font-weight: 400 ; letter-spacing: normal ; text-align: left ; text-indent: 0px ; text-transform: none ; word-spacing: 0px ; background-color: rgb(42 , 42 , 42) ; display: inline ; float: none&quot;&gt;&amp;nbsp;&amp;nbsp;&amp;nbsp;&amp;nbsp;&amp;nbsp;&amp;nbsp;&amp;nbsp;&amp;nbsp;Genre&lt;/span&gt;&lt;br style=&quot;padding: 0px ; margin: 0px ; color: rgb(240 , 240 , 240) ; font-family: &amp;#34;helvetica&amp;#34; ; font-size: 12px ; font-style: normal ; font-weight: 400 ; letter-spacing: normal ; text-align: left ; text-indent: 0px ; text-transform: none ; word-spacing: 0px ; background-color: rgb(42 , 42 , 42)&quot;&gt;&lt;span style=&quot;color: rgb(240 , 240 , 240) ; font-family: &amp;#34;helvetica&amp;#34; ; font-size: 12px ; font-style: normal ; font-weight: 400 ; letter-spacing: normal ; text-align: left ; text-indent: 0px ; text-transform: none ; word-spacing: 0px ; background-color: rgb(42 , 42 , 42) ; display: inline ; float: none&quot;&gt;&lt;br&gt;&lt;/span&gt;" style="text;whiteSpace=wrap;html=1;fontSize=36;" vertex="1" parent="7fuMSyOZE2lZqy47H0VQ-0">
                    <mxGeometry y="30" width="200" height="330" as="geometry"/>
                </mxCell>
                <mxCell id="7fuMSyOZE2lZqy47H0VQ-2" value="Donation Form" style="text;html=1;strokeColor=none;fillColor=none;align=center;verticalAlign=middle;whiteSpace=wrap;rounded=0;fontSize=35;" vertex="1" parent="yBMcqC7M9m57o5L9N9ml-1">
                    <mxGeometry x="330" y="40" width="430" height="30" as="geometry"/>
                </mxCell>
                <mxCell id="7fuMSyOZE2lZqy47H0VQ-3" value="Book Drop" style="icon;html=1;image=img/clipart/Gear_128x128.png;fontSize=35;" vertex="1" parent="yBMcqC7M9m57o5L9N9ml-1">
                    <mxGeometry x="515" y="530" width="60" height="60" as="geometry"/>
                </mxCell>
                <mxCell id="aXqPiCTnrSzbOLoFvAgc-0" value="Add Another?" style="text;strokeColor=none;fillColor=none;html=1;fontSize=24;fontStyle=1;verticalAlign=middle;align=center;" vertex="1" parent="yBMcqC7M9m57o5L9N9ml-1">
                    <mxGeometry x="500" y="700" width="100" height="40" as="geometry"/>
                </mxCell>
            </root>
        </mxGraphModel>
    </diagram>
    <diagram id="3uDZbhd9GrFHNVeLeTHL" name="Confirmation">
        <mxGraphModel dx="564" dy="764" grid="1" gridSize="10" guides="1" tooltips="1" connect="1" arrows="1" fold="1" page="1" pageScale="1" pageWidth="1100" pageHeight="850" math="0" shadow="0">
            <root>
                <mxCell id="OMk8aRsNitVELRoVhw5t-0"/>
                <mxCell id="OMk8aRsNitVELRoVhw5t-1" parent="OMk8aRsNitVELRoVhw5t-0"/>
                <mxCell id="OMk8aRsNitVELRoVhw5t-2" value="(This is an Alert Window" style="text;html=1;strokeColor=none;fillColor=none;align=center;verticalAlign=middle;whiteSpace=wrap;rounded=0;fontSize=35;" vertex="1" parent="OMk8aRsNitVELRoVhw5t-1">
                    <mxGeometry x="90" y="70" width="420" height="30" as="geometry"/>
                </mxCell>
            </root>
        </mxGraphModel>
    </diagram>
    <diagram id="0oDcwt-qK7RCW09rTH2M" name="My Books">
        <mxGraphModel dx="806" dy="1091" grid="1" gridSize="10" guides="1" tooltips="1" connect="1" arrows="1" fold="1" page="1" pageScale="1" pageWidth="1100" pageHeight="850" math="0" shadow="0">
            <root>
                <mxCell id="0yCeO7TfRfIhTBusrz7e-0"/>
                <mxCell id="0yCeO7TfRfIhTBusrz7e-1" parent="0yCeO7TfRfIhTBusrz7e-0"/>
                <mxCell id="OdgfmwcwVobFozw0j-yF-0" value="My Books" style="text;html=1;strokeColor=none;fillColor=none;align=center;verticalAlign=middle;whiteSpace=wrap;rounded=0;fontSize=35;" vertex="1" parent="0yCeO7TfRfIhTBusrz7e-1">
                    <mxGeometry x="471" y="44" width="210" height="30" as="geometry"/>
                </mxCell>
                <mxCell id="OdgfmwcwVobFozw0j-yF-1" value="List" style="swimlane;fontStyle=0;childLayout=stackLayout;horizontal=1;startSize=30;horizontalStack=0;resizeParent=1;resizeParentMax=0;resizeLast=0;collapsible=1;marginBottom=0;fontSize=35;" vertex="1" parent="0yCeO7TfRfIhTBusrz7e-1">
                    <mxGeometry x="250" y="120" width="660" height="390" as="geometry"/>
                </mxCell>
                <mxCell id="OdgfmwcwVobFozw0j-yF-2" value="Book 1                                        Return" style="text;strokeColor=none;fillColor=none;align=left;verticalAlign=middle;spacingLeft=4;spacingRight=4;overflow=hidden;points=[[0,0.5],[1,0.5]];portConstraint=eastwest;rotatable=0;fontSize=35;" vertex="1" parent="OdgfmwcwVobFozw0j-yF-1">
                    <mxGeometry y="30" width="660" height="130" as="geometry"/>
                </mxCell>
                <mxCell id="OdgfmwcwVobFozw0j-yF-3" value="Book 2                                        Return" style="text;strokeColor=none;fillColor=none;align=left;verticalAlign=middle;spacingLeft=4;spacingRight=4;overflow=hidden;points=[[0,0.5],[1,0.5]];portConstraint=eastwest;rotatable=0;fontSize=35;" vertex="1" parent="OdgfmwcwVobFozw0j-yF-1">
                    <mxGeometry y="160" width="660" height="120" as="geometry"/>
                </mxCell>
                <mxCell id="OdgfmwcwVobFozw0j-yF-4" value="Book 3                                        Return" style="text;strokeColor=none;fillColor=none;align=left;verticalAlign=middle;spacingLeft=4;spacingRight=4;overflow=hidden;points=[[0,0.5],[1,0.5]];portConstraint=eastwest;rotatable=0;fontSize=35;" vertex="1" parent="OdgfmwcwVobFozw0j-yF-1">
                    <mxGeometry y="280" width="660" height="110" as="geometry"/>
                </mxCell>
                <mxCell id="OdgfmwcwVobFozw0j-yF-5" value="Wish List" style="swimlane;fontStyle=0;childLayout=stackLayout;horizontal=1;startSize=30;horizontalStack=0;resizeParent=1;resizeParentMax=0;resizeLast=0;collapsible=1;marginBottom=0;fontSize=35;" vertex="1" parent="0yCeO7TfRfIhTBusrz7e-1">
                    <mxGeometry x="250" y="530" width="660" height="390" as="geometry"/>
                </mxCell>
                <mxCell id="OdgfmwcwVobFozw0j-yF-6" value="Book 1                                        Checkout" style="text;strokeColor=none;fillColor=none;align=left;verticalAlign=middle;spacingLeft=4;spacingRight=4;overflow=hidden;points=[[0,0.5],[1,0.5]];portConstraint=eastwest;rotatable=0;fontSize=35;" vertex="1" parent="OdgfmwcwVobFozw0j-yF-5">
                    <mxGeometry y="30" width="660" height="130" as="geometry"/>
                </mxCell>
                <mxCell id="OdgfmwcwVobFozw0j-yF-7" value="Book 2                                        Checkout" style="text;strokeColor=none;fillColor=none;align=left;verticalAlign=middle;spacingLeft=4;spacingRight=4;overflow=hidden;points=[[0,0.5],[1,0.5]];portConstraint=eastwest;rotatable=0;fontSize=35;" vertex="1" parent="OdgfmwcwVobFozw0j-yF-5">
                    <mxGeometry y="160" width="660" height="120" as="geometry"/>
                </mxCell>
                <mxCell id="OdgfmwcwVobFozw0j-yF-8" value="Book 3                                        Checkout" style="text;strokeColor=none;fillColor=none;align=left;verticalAlign=middle;spacingLeft=4;spacingRight=4;overflow=hidden;points=[[0,0.5],[1,0.5]];portConstraint=eastwest;rotatable=0;fontSize=35;" vertex="1" parent="OdgfmwcwVobFozw0j-yF-5">
                    <mxGeometry y="280" width="660" height="110" as="geometry"/>
                </mxCell>
=======
        <mxGraphModel dx="466" dy="216" grid="1" gridSize="10" guides="1" tooltips="1" connect="1" arrows="1" fold="1" page="1" pageScale="1" pageWidth="1100" pageHeight="850" math="0" shadow="0">
            <root>
                <mxCell id="yBMcqC7M9m57o5L9N9ml-0"/>
                <mxCell id="yBMcqC7M9m57o5L9N9ml-1" parent="yBMcqC7M9m57o5L9N9ml-0"/>
                <mxCell id="7fuMSyOZE2lZqy47H0VQ-0" value="Books" style="swimlane;fontStyle=0;childLayout=stackLayout;horizontal=1;startSize=30;horizontalStack=0;resizeParent=1;resizeParentMax=0;resizeLast=0;collapsible=1;marginBottom=0;fontSize=13;" parent="yBMcqC7M9m57o5L9N9ml-1" vertex="1">
                    <mxGeometry x="450" y="130" width="200" height="360" as="geometry"/>
                </mxCell>
                <mxCell id="7fuMSyOZE2lZqy47H0VQ-1" value="&lt;span style=&quot;color: rgb(240 , 240 , 240) ; font-family: &amp;#34;helvetica&amp;#34; ; font-size: 12px ; font-style: normal ; font-weight: 400 ; letter-spacing: normal ; text-align: left ; text-indent: 0px ; text-transform: none ; word-spacing: 0px ; background-color: rgb(42 , 42 , 42) ; display: inline ; float: none&quot;&gt;&amp;nbsp; &amp;nbsp; &amp;nbsp; &amp;nbsp; Title&lt;/span&gt;&lt;br style=&quot;padding: 0px ; margin: 0px ; color: rgb(240 , 240 , 240) ; font-family: &amp;#34;helvetica&amp;#34; ; font-size: 12px ; font-style: normal ; font-weight: 400 ; letter-spacing: normal ; text-align: left ; text-indent: 0px ; text-transform: none ; word-spacing: 0px ; background-color: rgb(42 , 42 , 42)&quot;&gt;&lt;span style=&quot;color: rgb(240 , 240 , 240) ; font-family: &amp;#34;helvetica&amp;#34; ; font-size: 12px ; font-style: normal ; font-weight: 400 ; letter-spacing: normal ; text-align: left ; text-indent: 0px ; text-transform: none ; word-spacing: 0px ; background-color: rgb(42 , 42 , 42) ; display: inline ; float: none&quot;&gt;&amp;nbsp;&amp;nbsp;&amp;nbsp;&amp;nbsp;&amp;nbsp;&amp;nbsp;&amp;nbsp;&amp;nbsp;Author&lt;/span&gt;&lt;br style=&quot;padding: 0px ; margin: 0px ; color: rgb(240 , 240 , 240) ; font-family: &amp;#34;helvetica&amp;#34; ; font-size: 12px ; font-style: normal ; font-weight: 400 ; letter-spacing: normal ; text-align: left ; text-indent: 0px ; text-transform: none ; word-spacing: 0px ; background-color: rgb(42 , 42 , 42)&quot;&gt;&lt;span style=&quot;color: rgb(240 , 240 , 240) ; font-family: &amp;#34;helvetica&amp;#34; ; font-size: 12px ; font-style: normal ; font-weight: 400 ; letter-spacing: normal ; text-align: left ; text-indent: 0px ; text-transform: none ; word-spacing: 0px ; background-color: rgb(42 , 42 , 42) ; display: inline ; float: none&quot;&gt;&amp;nbsp;&amp;nbsp;&amp;nbsp;&amp;nbsp;&amp;nbsp;&amp;nbsp;&amp;nbsp;&amp;nbsp;Genre&lt;/span&gt;&lt;br style=&quot;padding: 0px ; margin: 0px ; color: rgb(240 , 240 , 240) ; font-family: &amp;#34;helvetica&amp;#34; ; font-size: 12px ; font-style: normal ; font-weight: 400 ; letter-spacing: normal ; text-align: left ; text-indent: 0px ; text-transform: none ; word-spacing: 0px ; background-color: rgb(42 , 42 , 42)&quot;&gt;&lt;span style=&quot;color: rgb(240 , 240 , 240) ; font-family: &amp;#34;helvetica&amp;#34; ; font-size: 12px ; font-style: normal ; font-weight: 400 ; letter-spacing: normal ; text-align: left ; text-indent: 0px ; text-transform: none ; word-spacing: 0px ; background-color: rgb(42 , 42 , 42) ; display: inline ; float: none&quot;&gt;&lt;br&gt;&lt;/span&gt;" style="text;whiteSpace=wrap;html=1;fontSize=36;" parent="7fuMSyOZE2lZqy47H0VQ-0" vertex="1">
                    <mxGeometry y="30" width="200" height="330" as="geometry"/>
                </mxCell>
                <mxCell id="7fuMSyOZE2lZqy47H0VQ-2" value="Donation Form" style="text;html=1;strokeColor=none;fillColor=none;align=center;verticalAlign=middle;whiteSpace=wrap;rounded=0;fontSize=35;" parent="yBMcqC7M9m57o5L9N9ml-1" vertex="1">
                    <mxGeometry x="330" y="40" width="430" height="30" as="geometry"/>
                </mxCell>
                <mxCell id="7fuMSyOZE2lZqy47H0VQ-3" value="Book Drop" style="icon;html=1;image=img/clipart/Gear_128x128.png;fontSize=35;" parent="yBMcqC7M9m57o5L9N9ml-1" vertex="1">
                    <mxGeometry x="515" y="530" width="60" height="60" as="geometry"/>
                </mxCell>
>>>>>>> 6710be9cc2c3d7a9923cee38cdf8c6669b96e2d7
            </root>
        </mxGraphModel>
    </diagram>
</mxfile>